<svg xmlns="http://www.w3.org/2000/svg" width="31.41" height="28.836" viewBox="0 0 31.41 28.836"><g transform="translate(-164.504 -709.07)"><path d="M7.429,32.333a6.075,6.075,0,0,1-1.018-.086l2.3-2.3A3.882,3.882,0,0,0,11.059,27.6l2.383-2.383v1.1A6.029,6.029,0,0,1,7.429,32.333Zm-4.61-2.151h0A6.014,6.014,0,0,1,11.276,21.7V13.475a.991.991,0,0,1,0-.164V8.463a1.078,1.078,0,0,1,.844-1.057L29.258,3.524A1.083,1.083,0,0,1,29.5,3.5H29.5L26.67,6.331l-13.228,3v2.711l9.723-2.2L20.3,12.705l-6.854,1.553v5.3L9.749,23.251a3.848,3.848,0,0,0-5.39,5.39L2.819,30.181Zm21.748-1.819a6.015,6.015,0,0,1-5.151-9.122L21.458,17.2a6.02,6.02,0,0,1,6.956.528V10.866l-.805.182,2.971-2.971v1.39c0,.03,0,.059,0,.088V22.348A6.03,6.03,0,0,1,24.566,28.363Zm0-9.862a3.849,3.849,0,1,0,3.847,3.848A3.854,3.854,0,0,0,24.566,18.5Z" transform="translate(163.09 705.573)" fill="#fff"/><line x1="26" y2="25" transform="translate(168.5 710.5)" fill="none" stroke="#fff" stroke-linecap="round" stroke-width="2"/></g></svg>